<svg width="255" height="135" viewBox="0 0 255 135" fill="none" xmlns="http://www.w3.org/2000/svg">
<rect x="0.5" y="0.5" width="254" height="134" stroke="#C4C4C4"/>
<path fill-rule="evenodd" clip-rule="evenodd" d="M70.2376 48C73.3151 49.9045 77.0851 55.0318 78.3931 58.8408C79.9318 63.0892 78.47 67.2643 74.8539 70.3408C68.9296 75.3217 65.1596 78.7643 62.3898 81.914C60.2355 84.4045 57.5427 87.5541 57.7735 94C52.0801 87.4809 51.0029 77.4459 57.158 70.9268C63.7747 63.8949 65.0057 62.4299 67.4678 59.3535C69.7759 56.4236 70.6223 52.2484 70.2376 48Z" fill="#558EC0"/>
<path fill-rule="evenodd" clip-rule="evenodd" d="M44.5011 80C28.5114 66.474 32.8793 47.6879 56.279 42.3526C58.7749 41.7514 59.8669 41.526 61.1149 41C62.4409 43.6301 62.5969 45.659 59.3209 47.8382C51.131 53.1734 38.7292 60.4624 44.5011 80Z" fill="#558EC0"/>
<path fill-rule="evenodd" clip-rule="evenodd" d="M102.918 83.3352C101.609 83.8523 100.955 84 98.9909 84C91.2182 84 85 78.1648 85 71C85 63.8352 91.3 58 98.9909 58C100.3 58 101.609 58.1477 103 58.5909V65.017C101.773 64.3523 100.545 64.0568 98.9909 64.0568C94.7364 64.0568 91.3 67.1591 91.3 71C91.3 74.8409 94.7364 77.9432 98.9909 77.9432C100.791 77.9432 101.691 77.6477 102.836 77.0568L102.918 83.3352Z" fill="#053D5B"/>
<path fill-rule="evenodd" clip-rule="evenodd" d="M191 71C191 78.1648 184.921 84 177.5 84C170 84 164 78.1648 164 71C164 63.8352 170.079 58 177.5 58C184.921 58 191 63.8352 191 71ZM177.421 64.0568C173.316 64.0568 170 67.1591 170 71C170 74.8409 173.316 77.9432 177.421 77.9432C181.526 77.9432 184.842 74.8409 184.842 71C184.842 67.1591 181.526 64.0568 177.421 64.0568Z" fill="#053D5B"/>
<path fill-rule="evenodd" clip-rule="evenodd" d="M133.891 83.9251H127V68.0403C127 62.7205 131.676 58 137.5 58C143.324 58 148 62.7205 148 68.0403V84H141.109V68.0403C141.109 65.7176 139.469 64.294 137.418 64.294C135.367 64.294 133.727 65.9424 133.727 68.0403L133.891 83.9251Z" fill="#053D5B"/>
<path fill-rule="evenodd" clip-rule="evenodd" d="M199.562 83.9251H193V68.0403C193 62.7205 197.453 58 203 58C208.547 58 213 62.7205 213 68.0403V84H206.438V68.0403C206.438 65.7925 204.875 64.294 202.922 64.294C200.969 64.294 199.406 65.9424 199.406 68.0403L199.562 83.9251Z" fill="#053D5B"/>
<path fill-rule="evenodd" clip-rule="evenodd" d="M111.563 77.1816V83.9251H105V68.0403C105 62.7205 109.453 58 115 58C120.547 58 125 62.7205 125 68.0403V84H118.438V77.1066H111.563V77.1816ZM118.516 71.2622V68.1153C118.516 65.8674 116.953 64.3689 115 64.3689C113.203 64.3689 111.484 66.0173 111.484 68.1153V71.3372H118.516V71.2622Z" fill="#053D5B"/>
<path fill-rule="evenodd" clip-rule="evenodd" d="M159.195 67.5748L161.256 71.2062C164.823 77.2587 161.177 85.732 150 83.6894V77.7126C154.598 79.377 157.134 77.0317 155.152 73.3246C155.152 73.3246 153.726 70.828 152.616 68.9366C149.921 64.3972 153.329 56.6804 163 58.1935V64.3216C160.543 62.5815 157.293 64.3216 159.195 67.5748Z" fill="#053D5B"/>
<path d="M221 61.5C221 62.2353 220.647 62.8235 220.118 63.2647C219.588 63.7059 218.794 64 218 64C217.118 64 216.412 63.7059 215.882 63.2647C215.353 62.8235 215 62.1618 215 61.5C215 60.7647 215.353 60.1765 215.882 59.7353C216.412 59.2941 217.206 59 218 59C218.794 59 219.588 59.2941 220.118 59.7353C220.647 60.1765 221 60.7647 221 61.5ZM219.853 63.1176C220.382 62.6765 220.647 62.1618 220.647 61.5C220.647 60.9118 220.382 60.3235 219.853 59.8824C219.324 59.4412 218.706 59.2206 217.912 59.2206C217.118 59.2206 216.5 59.4412 215.971 59.8824C215.441 60.3235 215.176 60.8382 215.176 61.5C215.176 62.1618 215.441 62.6765 215.971 63.1176C216.5 63.5588 217.118 63.7794 217.912 63.7794C218.706 63.7794 219.324 63.4853 219.853 63.1176Z" fill="#053D5B"/>
<path fill-rule="evenodd" clip-rule="evenodd" d="M217.471 60.3947H218.118C218.353 60.3947 218.529 60.4737 218.529 60.8684C218.529 61.1842 218.412 61.3421 218.118 61.3421H217.471V60.3947ZM217.059 63H217.471V61.7368H218.059C218.412 61.7368 218.529 61.9737 218.529 62.5263C218.529 62.6842 218.529 62.8421 218.588 63H219C218.941 62.8421 218.882 62.5263 218.882 62.2105C218.882 61.7368 218.706 61.5789 218.529 61.5789C218.588 61.5789 218.882 61.4211 218.882 60.7895C218.882 60.2368 218.647 60 218.118 60H217V63H217.059Z" fill="#053D5B"/>
</svg>
