<svg width="255" height="135" viewBox="0 0 255 135" fill="none" xmlns="http://www.w3.org/2000/svg">
<rect x="0.5" y="0.5" width="254" height="134" stroke="#C4C4C4"/>
<g clip-path="url(#clip0_1_587)">
<path d="M28.5516 77.1447L26.0432 77.8058L20.5774 69.5614L17.5075 69.4836L17.6572 77.4558L15.1863 77.6502V57.5058L19.9784 57.3502C22.1497 57.2725 23.8344 57.778 24.995 58.7891C26.1556 59.8391 26.7546 61.2391 26.7546 62.9114C26.7546 64.0391 26.3802 65.128 25.6689 66.2169C24.9576 67.3447 23.9467 68.2003 22.599 68.7447V68.8225L28.5516 77.1447ZM17.6198 58.9447L17.47 68.1225L21.2138 67.9669C22.5615 67.578 24.1714 65.9447 24.1714 63.5336C24.1714 60.8502 22.4867 59.1003 19.6789 59.0225L17.6198 58.9447ZM40.1947 77.8058C34.8036 77.8058 30.5732 73.6447 30.5732 67.4225C30.5732 61.7058 35.3652 57.0391 40.7562 57.0391C46.1847 57.0391 50.4151 61.2391 50.4151 67.4614C50.3777 73.2169 45.3611 77.8058 40.1947 77.8058ZM40.569 76.1336C44.7995 76.1336 47.7571 72.8669 47.7571 67.6558C47.7571 62.4447 44.3128 58.7114 40.3818 58.7114C36.1888 58.7114 33.1938 61.9391 33.1938 67.228C33.1938 72.3225 36.713 76.1336 40.569 76.1336ZM61.01 77.4558L58.5391 77.6502V68.0836L51.2388 57.7002L53.8968 57.3502L60.0366 66.6447L66.3635 57.3502L68.4975 57.7002L60.9725 68.2002L61.01 77.4558ZM85.2695 77.4169L82.6863 77.6891L80.777 72.3614L71.4551 72.5558L69.5457 77.6502L67.4118 77.4169L75.7604 57.3502L76.8835 57.078L85.2695 77.4169ZM76.0224 60.8114L72.1664 70.7669L80.178 70.9225L76.0224 60.8114ZM93.8428 77.4558L88.7138 77.6114V57.5447L91.1847 57.3502L91.0724 65.8669L91.1472 75.9002L99.3835 75.5891L99.1963 77.4947L93.8428 77.4558ZM150.785 77.4558L148.314 77.6502V59.0225L140.827 59.2947L141.014 57.3502H149.325L158.048 57.1558L157.861 59.2169L150.823 58.9447L150.673 66.3336L150.785 77.4558ZM174.633 77.4169L172.05 77.6891L170.141 72.3614L160.819 72.5558L158.909 77.6502L156.775 77.4169L165.124 57.3502L166.247 57.078L174.633 77.4169ZM165.386 60.8114L161.53 70.7669L169.542 70.9225L165.386 60.8114ZM183.206 77.4558L178.077 77.6114V57.5447L180.548 57.3502L180.436 65.828L180.511 75.8614L188.747 75.5503L188.56 77.4558H183.206ZM195.523 77.4558L192.266 77.6114V57.5058L196.908 57.3502H202.674L202.487 59.2947L194.737 58.9836L194.55 66.6058L201.289 66.4114L200.877 68.3169L194.512 68.1225L194.7 75.8614L203.31 75.5891L203.123 77.4947H195.523V77.4558ZM209.413 77.4558L207.204 77.6502L207.391 57.5447L209.188 57.3502L221.131 72.9058L220.906 57.5447L223.115 57.3502L222.853 77.4558L222.029 77.6114L209.151 61.3558L209.413 77.4558ZM232.849 77.6502C231.725 77.6502 230.602 77.4169 229.517 76.9502C228.431 76.4836 227.607 75.9002 227.008 75.3169L228.206 73.9558C229.704 75.1225 231.314 76.0169 233.485 76.0169C235.881 76.0169 237.528 74.8891 237.528 72.6725C237.528 71.5058 237.116 70.6114 236.368 70.0669C235.619 69.5225 234.571 68.978 233.298 68.4336C230.64 67.3447 227.795 66.2169 227.795 62.5225C227.795 59.5669 230.378 57.1947 233.897 57.1947C235.731 57.1947 237.641 57.7391 238.764 58.5947L238.314 60.3447C237.191 59.8003 235.02 58.9836 233.373 58.9836C231.538 58.9836 230.003 59.878 230.003 61.8225C230.003 63.0669 230.415 63.9614 231.164 64.5058C231.913 65.0891 232.961 65.6336 234.196 66.178C236.817 67.3447 239.737 68.278 239.737 71.8947C239.775 75.7058 236.443 77.6502 232.849 77.6502Z" fill="#333333"/>
<path d="M110.279 57.0777V77.5721H130.008V57.0777H110.279ZM120.125 76.7166C115.108 76.7166 111.065 72.5166 111.065 67.3054C111.065 62.0943 115.108 57.8943 120.125 57.8943C125.141 57.8943 129.185 62.0943 129.185 67.3054C129.185 72.5166 125.141 76.7166 120.125 76.7166ZM112.188 68.9777C112.375 69.911 113.274 72.1666 114.809 71.6221C115.932 71.1943 116.007 70.1054 116.231 68.861C116.418 67.6943 116.718 65.4777 117.092 65.011C117.13 64.9721 117.092 64.9332 117.055 64.9332C116.156 64.9721 115.557 67.0721 115.22 68.0443C114.584 69.9499 112.637 70.1055 112.3 68.9388C112.3 68.9388 112.188 68.9388 112.188 68.9777ZM127.912 65.6721C127.687 65.1666 127.537 64.9721 127.313 64.5054C127.5 63.961 127.725 63.2221 127.687 62.911C127.537 61.5888 125.815 62.9888 126.19 64.6999C126.302 65.1666 126.414 65.5166 126.489 65.8277C125.965 66.9166 125.74 66.7221 125.778 66.3332C125.815 66.061 125.853 65.5166 125.853 65.5166C126.002 64.4666 125.478 64.3888 125.141 64.6221C124.954 64.7388 124.692 65.1277 124.58 65.361L124.692 64.8555L123.756 65.2443L123.457 66.8388C123.082 67.7332 122.671 67.8888 122.408 67.8499C122.334 67.811 122.259 67.7721 122.184 67.7332C123.045 66.9554 123.344 66.2943 123.27 65.8277C123.195 65.3221 122.82 65.3221 122.558 65.3999C121.884 65.6332 121.323 66.3332 121.173 67.3054C121.136 67.6166 121.136 67.9277 121.21 68.161C120.611 69.1332 120.574 68.5888 120.649 68.1999C120.836 67.3054 121.435 63.611 121.435 63.611L120.499 63.9999C120.499 63.9999 119.938 67.2277 119.713 68.4721C119.264 69.5999 119.151 69.1721 119.226 68.7832C119.376 67.8888 119.601 66.7221 119.601 66.7221L118.702 67.0721C118.702 67.0721 118.627 67.3443 118.552 67.811C118.44 67.461 118.215 67.2277 117.916 67.1888C117.354 67.111 116.755 67.8888 116.568 68.8221C116.381 69.7943 116.681 70.6499 117.242 70.6888C117.654 70.7277 118.066 70.3777 118.328 69.8332C118.478 70.1832 118.852 70.1443 119.077 69.9888C119.301 69.8332 119.526 69.4443 119.676 69.1332C119.75 69.5999 120.125 69.5999 120.387 69.4443C120.799 69.211 121.173 68.6666 121.36 68.4332C121.51 68.7054 121.772 68.861 122.072 68.8221C122.483 68.7832 122.97 68.2388 123.344 67.6166L123.195 68.3555L124.131 67.9666L124.468 66.1777C124.917 65.0499 125.067 65.4388 125.029 65.7888C125.029 65.7888 124.992 66.0999 124.917 66.6055C124.804 67.6555 125.254 67.6943 125.591 67.4999C126.077 67.1888 126.377 66.6054 126.639 66.061C126.826 66.5277 127.051 66.9166 127.238 67.4999C128.586 71.4277 123.494 71.0388 121.473 71.1166C119.601 71.1943 119.413 72.8666 119.226 74.1499C126.19 74.2277 129.334 68.8999 127.912 65.6721ZM118.403 68.6666C118.365 69.1332 118.066 69.6388 117.804 69.6388C117.542 69.6388 117.354 69.2499 117.429 68.7054C117.504 68.2388 117.729 67.811 117.991 67.811C118.253 67.811 118.44 68.1999 118.403 68.6666ZM122.072 67.4221C122.034 67.3054 122.034 67.1888 122.034 67.0332C122.072 66.5666 122.296 66.061 122.596 65.9832C122.708 65.9443 122.82 65.9832 122.82 66.1777C122.82 66.6054 122.408 67.111 122.072 67.4221ZM127.163 64.1554C127.126 64.1166 127.126 64.0777 127.126 64.0388C126.564 62.6388 127.313 62.4443 127.388 63.0277C127.388 63.3388 127.313 63.7666 127.163 64.1554ZM121.098 60.1499C120.986 61.0443 120.911 62.911 119.226 63.1832C116.456 63.6499 112.75 64.8943 112.151 67.6943C112.151 67.7332 112.038 67.7332 112.038 67.7332C111.963 63.3388 115.745 60.1499 121.098 60.1499Z" fill="#FF0000"/>
</g>
<defs>
<clipPath id="clip0_1_587">
<rect width="225" height="21" fill="white" transform="translate(15 57)"/>
</clipPath>
</defs>
</svg>
