<svg width="255" height="135" viewBox="0 0 255 135" fill="none" xmlns="http://www.w3.org/2000/svg">
<rect x="0.5" y="0.5" width="254" height="134" stroke="#C4C4C4"/>
<g clip-path="url(#clip0_1_580)">
<path fill-rule="evenodd" clip-rule="evenodd" d="M149.092 79.9242H146.835V54.0758H149.092V79.9242ZM202.734 54.0758V75.7426L182.571 54.0758V54H180.239V79.9242H182.571V58.0289L202.734 79.9242V79.8473V79.9242H205.066V54.0758H202.734ZM175.123 54.0758V54.1516L151.198 79.8473H154.658L175.123 57.2688V72.2442H165.042V74.6014H175.123V79.8473H177.378V54.0758H175.123Z" fill="black"/>
<path fill-rule="evenodd" clip-rule="evenodd" d="M137.206 68.1384H137.356C141.118 68.1384 144.201 64.7181 144.201 60.9176C144.201 57.2688 141.342 54.2274 137.805 54.0758V54H137.43H118.924V79.9242H121.256V56.3572H137.656C138.763 56.5031 139.779 57.0469 140.513 57.8866C141.247 58.7264 141.649 59.8045 141.644 60.9188C141.644 63.3517 139.763 65.7077 137.28 65.8604H134.121V68.4449H134.195L140.891 79.8484H144.579L137.206 68.1384ZM104.027 54L91.464 54.0758V79.9231H110.347C113.957 79.6946 116.741 76.6531 116.741 73.0032C116.741 70.4956 115.462 68.3669 113.506 67.1499C115.461 65.9351 116.741 63.4264 116.741 60.9176C116.741 57.2688 113.957 54.3031 110.422 54.0758V54H104.027ZM104.027 77.5659H93.7954V56.3572H110.271C111.378 56.5031 112.394 57.0469 113.128 57.8867C113.862 58.7265 114.264 59.8046 114.258 60.9188C114.258 63.4275 112.227 65.7835 109.743 65.8604V68.4427C112.226 68.4427 114.258 70.4956 114.258 73.0032C114.258 75.3603 112.452 77.2605 110.196 77.5659H104.027Z" fill="black"/>
<path fill-rule="evenodd" clip-rule="evenodd" d="M23 54V79.8472H25.3325L45.796 57.8773V72.2442H35.8648V74.6013H45.796V79.8472H48.0537V54H23ZM25.3325 76.3499V67.5321H33.6082L25.3325 76.3499ZM25.3325 65.175V56.356H44.1404L35.8648 65.175H25.3325Z" fill="#00ACEC"/>
<path fill-rule="evenodd" clip-rule="evenodd" d="M219.21 54C212.139 54 206.345 59.7775 206.345 66.9247C206.345 74.0686 212.139 79.9242 219.21 79.9242C226.281 79.9242 232 74.0686 232 66.9247C232 59.7775 226.281 54 219.21 54ZM219.21 77.1859C213.642 77.1859 209.204 72.6254 209.204 67.0763C209.204 61.4504 213.642 56.9657 219.21 56.9657C224.702 56.9657 229.216 61.4504 229.216 67.0763C229.216 72.6254 224.702 77.1859 219.21 77.1859Z" fill="black"/>
<path fill-rule="evenodd" clip-rule="evenodd" d="M81.758 56.5087V54.1515H56.5546V79.9241H58.8123V68.0626H73.66L62.7234 79.8472H66.1842L86.5728 57.2688V72.2442H76.5667V74.6013H86.5728L86.7225 79.9999H89.0551L88.9054 54.0757H86.5728V54.1515L75.8473 65.7066H58.8123V56.5087H81.758Z" fill="black"/>
</g>
<defs>
<clipPath id="clip0_1_580">
<rect width="209" height="26" fill="white" transform="translate(23 54)"/>
</clipPath>
</defs>
</svg>
