<svg width="255" height="135" viewBox="0 0 255 135" fill="none" xmlns="http://www.w3.org/2000/svg">
<rect x="0.5" y="0.5" width="254" height="134" stroke="#C4C4C4"/>
<g clip-path="url(#clip0_1_576)">
<path d="M91.5745 82.9001V63.5335H89.1161V71.8668H80.6919V63.5335H78.2335V82.9001H80.6919V74.1335H89.1488V82.9001H91.5745ZM106.194 73.0335C106.194 70.0001 104.883 68.4335 100.884 68.4335C99.3758 68.4335 97.6057 68.6668 96.3274 69.0668L96.5568 71.0335C97.6713 70.8001 99.4086 70.5668 100.72 70.5668C102.981 70.5668 103.735 71.2001 103.735 72.9668V75.1668H100.064C97.2452 75.1668 95.8029 76.2335 95.8029 79.1668C95.8029 81.6668 96.9174 83.2335 99.5069 83.2335C101.179 83.2335 102.785 82.7668 104.03 81.9001L104.194 82.9668H106.227L106.194 73.0335ZM103.768 79.9668C102.686 80.6668 101.375 81.1335 100.162 81.1335C98.458 81.1335 98.1958 80.5335 98.1958 79.1001C98.1958 77.6668 98.753 77.2001 100.228 77.2001H103.768V79.9668ZM121.206 82.9001V72.0335C121.206 69.8668 120.42 68.4335 118.191 68.4335C116.585 68.4335 114.356 69.1335 112.815 69.9335V62.6335L110.422 62.9668V82.9335H112.815V72.2668C114.323 71.5001 116.453 70.8001 117.47 70.8001C118.355 70.8001 118.814 71.1668 118.814 72.1001V82.9335H121.206V82.9001ZM136.449 82.9001V72.0335C136.449 69.8668 135.662 68.4335 133.433 68.4335C131.794 68.4335 129.368 69.1668 127.828 69.9668L127.598 68.7668H125.632V82.9335H128.024V72.2335C129.532 71.4668 131.663 70.8001 132.679 70.8001C133.564 70.8001 134.023 71.1668 134.023 72.1001V82.9335H136.449V82.9001ZM142.578 77.9668V76.8001H150.871V73.8335C150.871 70.9001 149.757 68.4668 145.627 68.4668C141.496 68.4668 140.185 70.8335 140.185 73.7668V78.0001C140.185 81.2001 141.595 83.2001 145.692 83.2001C147.429 83.2001 149.298 82.9001 150.609 82.4001L150.314 80.4335C148.773 80.8335 147.298 81.1001 145.922 81.1001C143.201 81.1001 142.578 80.2001 142.578 77.9668ZM142.578 73.5668C142.578 71.5668 143.365 70.5001 145.627 70.5001C147.888 70.5001 148.544 71.6335 148.544 73.5668V74.7335H142.578V73.5668ZM173.882 82.9001V72.0335C173.882 69.8668 173.095 68.4335 170.866 68.4335C169.129 68.4335 166.769 69.1335 165.097 69.9668C164.704 69.0001 163.884 68.4335 162.442 68.4335C160.803 68.4335 158.377 69.1668 156.837 69.9668L156.607 68.7668H154.641V82.9335H157.034V72.2335C158.541 71.4668 160.672 70.8001 161.688 70.8001C162.573 70.8001 163.032 71.1668 163.032 72.1001V82.9335H165.425V72.2335C166.933 71.4668 168.932 70.8001 170.079 70.8001C170.964 70.8001 171.423 71.1668 171.423 72.1001V82.9335H173.882V82.9001ZM178.176 68.7668V79.6335C178.176 81.8001 178.962 83.2335 181.191 83.2335C182.83 83.2335 185.256 82.5001 186.797 81.7001L187.026 82.9001H188.993V68.7335H186.6V79.4335C185.092 80.2001 182.961 80.8668 181.945 80.8668C181.06 80.8668 180.601 80.5001 180.601 79.5668V68.7335L178.176 68.7668ZM180.11 66.6001H182.339V64.1668H180.11V66.6001ZM185.059 66.6001H187.288V64.1668H185.059V66.6001ZM204.366 82.9001V72.0335C204.366 69.8668 203.579 68.4335 201.35 68.4335C199.744 68.4335 197.515 69.1335 195.975 69.9335V62.6335L193.582 62.9668V82.9335H195.975V72.2668C197.482 71.5001 199.613 70.8001 200.629 70.8001C201.514 70.8001 201.973 71.1668 201.973 72.1001V82.9335H204.366V82.9001ZM211.217 82.9001V62.6001L208.824 62.9335V82.9001H211.217ZM217.445 77.9668V76.8001H225.738V73.8335C225.738 70.9001 224.623 68.4668 220.493 68.4668C216.363 68.4668 215.052 70.8335 215.052 73.7668V78.0001C215.052 81.2001 216.461 83.2001 220.559 83.2001C222.296 83.2001 224.164 82.9001 225.475 82.4001L225.18 80.4335C223.64 80.8335 222.165 81.1001 220.788 81.1001C218.067 81.1001 217.445 80.2001 217.445 77.9668ZM217.445 73.5668C217.445 71.5668 218.231 70.5001 220.493 70.5001C222.755 70.5001 223.41 71.6335 223.41 73.5668V74.7335H217.445V73.5668Z" fill="#6F7072"/>
<path d="M67.5478 56.0331C67.3183 53.4331 66.2038 51.1331 64.3682 49.6331C62.7293 48.2664 60.6314 47.5997 58.5992 47.8664C56.108 48.1331 54.0757 50.0664 52.7973 51.6331C51.3551 53.3664 50.3717 55.2664 49.8473 56.6331C48.5689 55.4997 47.7494 54.1664 47.3561 52.5331C47.0283 51.1331 46.6677 48.3664 46.4055 46.3664C46.2088 45.0331 46.1105 43.9664 46.0121 43.5997C45.7499 42.3664 44.9304 40.2664 44.406 39.1664C45.5532 38.9331 46.4383 38.6331 47.2905 37.7997C48.1428 36.9331 49.5195 35.5997 49.5522 35.5997L50.3717 34.7997L49.2245 34.6997C48.995 34.6664 43.1604 34.2331 42.177 34.2664C41.4887 34.2997 40.6364 34.6664 39.9481 35.3331C39.3908 35.8331 38.6697 36.6997 38.1453 38.0997C37.6208 38.1997 32.8679 39.1331 32.8679 39.1331V40.1664L33.2612 40.2664C34.7363 40.5997 36.6047 41.3997 37.7191 42.2331L37.6536 42.2664C36.703 42.8997 35.4246 43.7664 34.3429 44.7664C32.9662 46.0331 32.3106 47.1664 32.409 48.1664C32.4745 48.8664 32.7696 49.3997 33.2612 49.7664C33.6546 50.0331 34.1463 50.1664 34.7035 50.1664C34.0479 51.3331 33.6874 52.2331 33.4251 53.0997C33.0973 54.2997 32.9662 55.4997 33.1301 56.9997C33.3268 59.2997 34.474 61.5997 35.7852 63.5997H29V79.5664C29 80.9997 29.295 82.3664 29.9178 83.5664C30.475 84.6997 31.2617 85.6664 32.2451 86.4997C34.0151 87.9664 36.3752 88.8331 38.5714 88.8331C40.7676 88.8331 43.1276 87.9664 44.8977 86.4997C45.881 85.6997 46.6677 84.6997 47.225 83.5664C47.7822 82.4664 48.0772 81.2664 48.1428 79.9997C48.2739 77.8664 48.995 74.6997 50.1095 72.2331C51.3551 69.4331 53.0268 67.9664 55.1574 67.7664C56.3047 67.6664 57.4519 67.8331 58.4353 68.2997C59.2547 68.6664 60.0414 69.2331 60.6642 69.9331C61.8115 71.1664 62.3687 72.5664 62.4343 72.8664V72.8331L62.8276 74.1331L63.3849 72.9997C64.2699 71.1331 65.5155 68.1997 66.4333 64.7664C67.4494 61.4997 67.7772 58.5331 67.5478 56.0331ZM36.5719 64.5664L36.8013 64.8664C37.5225 65.8331 38.2764 66.6664 38.8992 67.3331L40.3087 68.8664C42.5704 71.2664 44.3404 73.1664 45.1599 74.5664C46.2088 76.3664 46.9627 78.1331 47.225 79.4664C47.2577 79.5997 47.2905 79.8664 47.2905 79.9664C47.1594 82.8331 45.6844 84.6331 44.406 85.6997C42.7998 87.0331 40.6692 87.8331 38.7025 87.8331C36.703 87.8331 34.6052 87.0664 32.999 85.6997C31.6879 84.5997 30.1145 82.6331 30.1145 79.5664V64.6331L36.5719 64.5664ZM38.2764 43.0664L38.5058 42.8997C38.6697 43.1331 38.7681 43.3331 38.7681 43.5664C38.8336 44.3664 38.1125 45.2331 37.2275 46.3664C36.6374 47.0997 35.9819 47.9664 35.3263 48.9664C34.7035 49.1331 34.179 49.0664 33.8185 48.7997C33.589 48.5997 33.4251 48.3331 33.3923 47.9664C33.3268 47.2997 33.884 46.4331 34.9985 45.3997C36.0802 44.5331 37.3586 43.6997 38.2764 43.0664ZM65.6138 64.5331C64.8927 67.2664 63.9421 69.7331 63.0898 71.4997C62.7621 70.8331 62.2704 70.0664 61.582 69.3331C60.402 67.9997 58.3042 66.4997 55.1574 66.7664C53.8135 66.8997 52.6007 67.4664 51.5517 68.3997C50.6995 69.1997 49.9456 70.3664 49.29 71.7997C48.5361 73.5331 48.0116 75.4997 47.6183 77.3331C47.225 76.2997 46.7005 75.1997 46.0121 74.0331C45.1271 72.5331 43.3243 70.5997 41.0298 68.1664L39.6203 66.6331C38.1125 64.9997 36.8341 63.3331 35.9163 61.7331C34.9002 59.9664 34.3102 58.2997 34.179 56.8664C34.0479 55.4997 34.1463 54.4331 34.4413 53.3331C34.7035 52.3331 35.1952 51.2997 36.0802 49.7997C36.703 48.6997 37.3913 47.8331 38.0469 47.0664C39.0958 45.7664 39.8825 44.7331 39.7842 43.5331C39.6859 42.5331 38.8664 41.5997 37.2602 40.7331C36.5719 40.3664 35.7852 40.0331 35.0641 39.7664C36.6047 39.4664 38.6042 39.0664 38.6042 39.0664L38.8992 38.9997L38.9975 38.7331C39.7186 36.3664 41.3248 35.2997 42.2098 35.2664C42.8326 35.2331 45.8155 35.4664 47.9789 35.5997C47.52 36.0331 46.9627 36.5997 46.5366 37.0331C45.8483 37.7331 45.0616 37.9331 43.9143 38.1997L42.7998 38.4664L43.226 39.0997C43.4554 39.4331 44.6354 42.2331 44.996 43.7997C45.0943 44.1331 45.2255 45.2331 45.3566 46.4664C45.6188 48.5997 45.9794 51.2997 46.3399 52.7664C46.8316 54.8664 47.8805 56.4997 49.6834 57.8664L50.2734 58.2997L50.3717 57.9331C50.8634 56.2997 52.2073 53.8997 53.5185 52.2997C54.6657 50.8664 56.5341 49.1331 58.6647 48.8664C60.402 48.6331 62.2376 49.2331 63.6799 50.4331C65.286 51.7664 66.3022 53.7997 66.4988 56.1331C66.7611 58.4997 66.4333 61.3331 65.6138 64.5331ZM42.2754 39.8997C42.2098 39.0997 41.4887 38.4664 40.6692 38.5664C39.8825 38.6331 39.2597 39.3664 39.3581 40.1997C39.4236 40.9997 40.1448 41.6331 40.9642 41.5331C41.7509 41.4331 42.3409 40.6997 42.2754 39.8997ZM41.2592 39.9997C41.292 40.2331 41.0953 40.4664 40.8659 40.4997C40.6364 40.5331 40.407 40.3331 40.3742 40.0997C40.3414 39.8664 40.5381 39.6331 40.7676 39.5997C41.0298 39.5331 41.2265 39.6997 41.2592 39.9997ZM37.4241 81.4331V81.6664C37.4241 81.9997 37.3913 82.1664 36.7686 82.1664C36.4735 82.1664 36.0802 82.1331 35.7524 82.0331L35.6541 82.7331C35.9491 82.8331 36.3424 82.8997 36.8013 82.8997C37.9814 82.8997 38.2436 82.4664 38.2436 81.7331V81.3331C38.2436 80.7331 38.0141 80.3331 37.2275 80.2997C36.998 80.2997 36.8669 80.2664 36.6374 80.2664V79.1664H38.178V78.4664H35.7852V80.9331C36.113 80.9331 36.3752 80.9331 36.8341 80.9664C37.3586 80.9997 37.4241 81.0997 37.4241 81.4331ZM32.5401 82.7997H35.0968V82.0997H34.2118V78.4664H33.4907L32.409 78.7997L32.6057 79.4997L33.4251 79.2664V82.0997H32.5729V82.7997H32.5401ZM38.8992 81.4664V81.7331C38.8992 82.4997 39.2597 82.8664 40.3087 82.8664C41.3576 82.8664 41.7181 82.5664 41.7181 81.7331V81.4664C41.7181 81.0997 41.587 80.8331 41.0953 80.5997C41.5215 80.3664 41.6198 80.0997 41.6198 79.7664V79.4664C41.6198 78.7997 41.292 78.3997 40.3414 78.3997C39.3908 78.3997 39.0631 78.7997 39.0631 79.4664V79.7664C39.0631 80.0997 39.1942 80.3664 39.5875 80.5997C39.0303 80.8331 38.8992 81.0997 38.8992 81.4664ZM40.8331 79.7664C40.8331 79.9997 40.7676 80.0997 40.3087 80.2997C39.8498 80.0997 39.7842 80.0331 39.7842 79.7664V79.4997C39.7842 79.2331 39.8825 79.0997 40.3087 79.0997C40.7348 79.0997 40.8331 79.2664 40.8331 79.4997V79.7664ZM39.6859 81.5331C39.6859 81.2664 39.7514 81.1331 40.3087 80.8997C40.8659 81.1331 40.9314 81.2331 40.9314 81.5331V81.7331C40.9314 82.0664 40.7676 82.1664 40.3087 82.1664C39.8498 82.1664 39.6859 82.0331 39.6859 81.7331V81.5331ZM43.6849 78.4664L42.1443 81.0664V81.7997H44.0126V82.7664H44.7993V81.7997H45.3238V81.0997H44.7993V78.4331H43.6849V78.4664ZM42.9637 81.1331L44.0126 79.2331V81.1331H42.9637Z" fill="#E1001A"/>
</g>
<defs>
<clipPath id="clip0_1_576">
<rect width="197" height="55" fill="white" transform="translate(29 34)"/>
</clipPath>
</defs>
</svg>
